<svg xmlns="http://www.w3.org/2000/svg" viewBox="0 0 100 100">
  <!-- Hourglass frame -->
  <path d="M30 20 L70 20 L60 40 L40 40 Z" fill="#4a3b5a" />
  <path d="M30 80 L70 80 L60 60 L40 60 Z" fill="#4a3b5a" />

  <!-- Hourglass glass -->
  <path d="M40 40 L60 40 L50 50 L40 40 Z" fill="url(#sand-gradient)" />
  <path d="M40 60 L60 60 L50 50 L40 60 Z" fill="url(#sand-gradient)" />

  <!-- Sand -->
  <path d="M45 45 L55 45 L50 50 Z" fill="#9b6b9e" />
  <path d="M45 55 L55 55 L50 50 Z" fill="#6b3d6e" />

  <!-- Shine/highlight -->
  <path d="M42 42 L48 42 L45 45 Z" fill="rgba(255,215,0,0.3)" />
  <path d="M52 58 L58 58 L55 55 Z" fill="rgba(255,215,0,0.3)" />

  <!-- Gradient definition -->
  <defs>
    <linearGradient id="sand-gradient" x1="0%" y1="0%" x2="100%" y2="100%">
      <stop offset="0%" stop-color="#9b6b9e" />
      <stop offset="50%" stop-color="#6b3d6e" />
      <stop offset="100%" stop-color="#4a3b5a" />
    </linearGradient>
  </defs>
</svg>
